%YAML 1.1
%TAG !u! tag:unity3d.com,2011:
--- !u!43 &4300000
Mesh:
  m_ObjectHideFlags: 0
  m_CorrespondingSourceObject: {fileID: 0}
  m_PrefabInstance: {fileID: 0}
  m_PrefabAsset: {fileID: 0}
  m_Name: 00_unnamed
  serializedVersion: 11
  m_SubMeshes:
  - serializedVersion: 2
    firstByte: 0
    indexCount: 18
    topology: 0
    baseVertex: 0
    firstVertex: 0
    vertexCount: 10
    localAABB:
      m_Center: {x: -0.45878887, y: 1.841069, z: -3.2193527}
      m_Extent: {x: 0.38194758, y: 0.41457582, z: 0.02236402}
  m_Shapes:
    vertices: []
    shapes: []
    channels: []
    fullWeights: []
  m_BindPose: []
  m_BoneNameHashes: 
  m_RootBoneNameHash: 0
  m_BonesAABB: []
  m_VariableBoneCountWeights:
    m_Data: 
  m_MeshCompression: 0
  m_IsReadable: 1
  m_KeepVertices: 1
  m_KeepIndices: 1
  m_IndexFormat: 0
  m_IndexBuffer: 010000000200010002000300040007000600040006000500050008000400050009000800
  m_VertexData:
    serializedVersion: 3
    m_VertexCount: 10
    m_Channels:
    - stream: 0
      offset: 0
      format: 0
      dimension: 3
    - stream: 0
      offset: 12
      format: 0
      dimension: 3
    - stream: 0
      offset: 24
      format: 0
      dimension: 4
    - stream: 0
      offset: 0
      format: 0
      dimension: 0
    - stream: 0
      offset: 40
      format: 0
      dimension: 2
    - stream: 0
      offset: 0
      format: 0
      dimension: 0
    - stream: 0
      offset: 0
      format: 0
      dimension: 0
    - stream: 0
      offset: 0
      format: 0
      dimension: 0
    - stream: 0
      offset: 0
      format: 0
      dimension: 0
    - stream: 0
      offset: 0
      format: 0
      dimension: 0
    - stream: 0
      offset: 0
      format: 0
      dimension: 0
    - stream: 0
      offset: 0
      format: 0
      dimension: 0
    - stream: 0
      offset: 0
      format: 0
      dimension: 0
    - stream: 0
      offset: 0
      format: 0
      dimension: 0
    m_DataSize: 480
    _typelessdata: 931e52bf40bceb3f7d594ec04ba7ddba6a0d45bd05b47f3f02bb6cbf47b1c23ed635893c0000803f40f2113e4016be3b395f9dbd40bceb3f7d594ec09ca9eeba07ba4bbdc6ae7f3fd0bd6cbfbba0c23e61448d3c0000803f94f2103e8017b63b813a57bf4da9b63f14104fc0000000005a19dcbc58e87f3f4df96fbfb43eb23eb54d193c0000803f72f3113e2554cb3bfb5e9dbd4da9b63f14104fc0000000005b19dcbc58e87f3f568270bf6656af3e8ecd163c0000803f30f8103e806dc23b931e52bf4aaaeb3fb3c14ec0a4a6dd3ac40d453d07b47fbf03bb6cbf40b1c23e1e36893c000080bf40f2113e4016be3b395f9dbd4aaaeb3fb3c14ec0eba8ee3a6aba4b3dc6ae7fbfd2bd6cbfb2a0c23eaf448d3c000080bf94f2103e8017b63bfb5e9dbd7c5c1040779b4cc0f445763bf5a8973d974b7fbff23d68bf2fefd63eba5ce33c000080bf04f3103e8068ac3be0f040bfca1b1040fcf74cc0f245763bf5a8973d974b7fbf054668bf6bccd63e7232e33c000080bfb9f8113e80d1b33b813a57bf5497b63f4a784fc0000000005019dc3c58e87fbf4cf96fbfbd3eb23eb44d193c000080bf72f3113e2554cb3bfb5e9dbd5497b63f4a784fc0000000005019dc3c58e87fbf558270bf6d56af3e8ccd163c000080bf30f8103e806dc23b
  m_CompressedMesh:
    m_Vertices:
      m_NumItems: 0
      m_Range: 0
      m_Start: 0
      m_Data: 
      m_BitSize: 0
    m_UV:
      m_NumItems: 0
      m_Range: 0
      m_Start: 0
      m_Data: 
      m_BitSize: 0
    m_Normals:
      m_NumItems: 0
      m_Range: 0
      m_Start: 0
      m_Data: 
      m_BitSize: 0
    m_Tangents:
      m_NumItems: 0
      m_Range: 0
      m_Start: 0
      m_Data: 
      m_BitSize: 0
    m_Weights:
      m_NumItems: 0
      m_Data: 
      m_BitSize: 0
    m_NormalSigns:
      m_NumItems: 0
      m_Data: 
      m_BitSize: 0
    m_TangentSigns:
      m_NumItems: 0
      m_Data: 
      m_BitSize: 0
    m_FloatColors:
      m_NumItems: 0
      m_Range: 0
      m_Start: 0
      m_Data: 
      m_BitSize: 0
    m_BoneIndices:
      m_NumItems: 0
      m_Data: 
      m_BitSize: 0
    m_Triangles:
      m_NumItems: 0
      m_Data: 
      m_BitSize: 0
    m_UVInfo: 0
  m_LocalAABB:
    m_Center: {x: -0.45878887, y: 1.841069, z: -3.2193527}
    m_Extent: {x: 0.38194758, y: 0.41457582, z: 0.02236402}
  m_MeshUsageFlags: 0
  m_CookingOptions: 30
  m_BakedConvexCollisionMesh: 
  m_BakedTriangleCollisionMesh: 
  'm_MeshMetrics[0]': 1
  'm_MeshMetrics[1]': 1
  m_MeshOptimizationFlags: 1
  m_StreamData:
    serializedVersion: 2
    offset: 0
    size: 0
    path: 
