%YAML 1.1
%TAG !u! tag:unity3d.com,2011:
--- !u!43 &4300000
Mesh:
  m_ObjectHideFlags: 0
  m_CorrespondingSourceObject: {fileID: 0}
  m_PrefabInstance: {fileID: 0}
  m_PrefabAsset: {fileID: 0}
  m_Name: 00_unnamed
  serializedVersion: 11
  m_SubMeshes:
  - serializedVersion: 2
    firstByte: 0
    indexCount: 18
    topology: 0
    baseVertex: 0
    firstVertex: 0
    vertexCount: 10
    localAABB:
      m_Center: {x: 0.45790085, y: 1.841343, z: -3.2161727}
      m_Extent: {x: 0.38194755, y: 0.41484988, z: 0.025544167}
  m_Shapes:
    vertices: []
    shapes: []
    channels: []
    fullWeights: []
  m_BindPose: []
  m_BoneNameHashes: 
  m_RootBoneNameHash: 0
  m_BonesAABB: []
  m_VariableBoneCountWeights:
    m_Data: 
  m_MeshCompression: 0
  m_IsReadable: 1
  m_KeepVertices: 1
  m_KeepIndices: 1
  m_IndexFormat: 0
  m_IndexBuffer: 000002000100010003000000040006000700040005000600050004000800050008000900
  m_VertexData:
    serializedVersion: 3
    m_VertexCount: 10
    m_Channels:
    - stream: 0
      offset: 0
      format: 0
      dimension: 3
    - stream: 0
      offset: 12
      format: 0
      dimension: 3
    - stream: 0
      offset: 24
      format: 0
      dimension: 4
    - stream: 0
      offset: 0
      format: 0
      dimension: 0
    - stream: 0
      offset: 40
      format: 0
      dimension: 2
    - stream: 0
      offset: 0
      format: 0
      dimension: 0
    - stream: 0
      offset: 0
      format: 0
      dimension: 0
    - stream: 0
      offset: 0
      format: 0
      dimension: 0
    - stream: 0
      offset: 0
      format: 0
      dimension: 0
    - stream: 0
      offset: 0
      format: 0
      dimension: 0
    - stream: 0
      offset: 0
      format: 0
      dimension: 0
    - stream: 0
      offset: 0
      format: 0
      dimension: 0
    - stream: 0
      offset: 0
      format: 0
      dimension: 0
    - stream: 0
      offset: 0
      format: 0
      dimension: 0
    m_DataSize: 480
    _typelessdata: 60e4513f40bceb3f7d594ec04ba7dd3a6a0d45bd05b47f3f02bb6c3f47b1c23ed635893c000080bf40f2113e4016be3ba88d9b3d40bceb3f7d594ec09da9ee3a07ba4bbdc7ae7f3fd0bd6c3fbca0c23e61448d3c000080bf94f2103e8017b63b6b8d9b3d7765104042334cc0a246763b8ba897bd994b7f3feb3d683f4defd63e165ce33c000080bf04f3103e8068ac3b4e00573f4da9b63f14104fc0000000005919dcbc58e87f3f4df96f3fb43eb23eb44d193c000080bf72f3113e2554cb3b60e4513f4aaaeb3fb3c14ec0a4a6ddbac40d453d07b47fbf02bb6c3f41b1c23e1e36893c0000803f40f2113e4016be3ba88d9b3d4aaaeb3fb3c14ec0eba8eeba6aba4b3dc6ae7fbfd2bd6c3fb2a0c23eaf448d3c0000803f94f2103e8017b63b6b8d9b3d7c5c1040779b4cc0f44576bbf5a8973d974b7fbff23d683f2fefd63eba5ce33c0000803f04f3103e8068ac3badb6403fca1b1040fcf74cc0f24576bbf5a8973d974b7fbf0546683f6bccd63e7232e33c0000803fb9f8113e80d1b33b4e00573f5497b63f4a784fc0000000004c19dc3c58e87fbf4cf96f3fbd3eb23eb24d193c0000803f72f3113e2554cb3b6b8d9b3d5497b63f4a784fc0000000004d19dc3c58e87fbf5582703f6d56af3e89cd163c0000803f30f8103e806dc23b
  m_CompressedMesh:
    m_Vertices:
      m_NumItems: 0
      m_Range: 0
      m_Start: 0
      m_Data: 
      m_BitSize: 0
    m_UV:
      m_NumItems: 0
      m_Range: 0
      m_Start: 0
      m_Data: 
      m_BitSize: 0
    m_Normals:
      m_NumItems: 0
      m_Range: 0
      m_Start: 0
      m_Data: 
      m_BitSize: 0
    m_Tangents:
      m_NumItems: 0
      m_Range: 0
      m_Start: 0
      m_Data: 
      m_BitSize: 0
    m_Weights:
      m_NumItems: 0
      m_Data: 
      m_BitSize: 0
    m_NormalSigns:
      m_NumItems: 0
      m_Data: 
      m_BitSize: 0
    m_TangentSigns:
      m_NumItems: 0
      m_Data: 
      m_BitSize: 0
    m_FloatColors:
      m_NumItems: 0
      m_Range: 0
      m_Start: 0
      m_Data: 
      m_BitSize: 0
    m_BoneIndices:
      m_NumItems: 0
      m_Data: 
      m_BitSize: 0
    m_Triangles:
      m_NumItems: 0
      m_Data: 
      m_BitSize: 0
    m_UVInfo: 0
  m_LocalAABB:
    m_Center: {x: 0.45790085, y: 1.841343, z: -3.2161727}
    m_Extent: {x: 0.38194755, y: 0.41484988, z: 0.025544167}
  m_MeshUsageFlags: 0
  m_CookingOptions: 30
  m_BakedConvexCollisionMesh: 
  m_BakedTriangleCollisionMesh: 
  'm_MeshMetrics[0]': 1
  'm_MeshMetrics[1]': 1
  m_MeshOptimizationFlags: 1
  m_StreamData:
    serializedVersion: 2
    offset: 0
    size: 0
    path: 
