%YAML 1.1
%TAG !u! tag:unity3d.com,2011:
--- !u!43 &4300000
Mesh:
  m_ObjectHideFlags: 0
  m_CorrespondingSourceObject: {fileID: 0}
  m_PrefabInstance: {fileID: 0}
  m_PrefabAsset: {fileID: 0}
  m_Name: 00_unnamed
  serializedVersion: 11
  m_SubMeshes:
  - serializedVersion: 2
    firstByte: 0
    indexCount: 12
    topology: 0
    baseVertex: 0
    firstVertex: 0
    vertexCount: 7
    localAABB:
      m_Center: {x: -0.78270864, y: 1.3253846, z: 0.24811508}
      m_Extent: {x: 0.071609855, y: 0.19000709, z: 0.4584217}
  m_Shapes:
    vertices: []
    shapes: []
    channels: []
    fullWeights: []
  m_BindPose: []
  m_BoneNameHashes: 
  m_RootBoneNameHash: 0
  m_BonesAABB: []
  m_VariableBoneCountWeights:
    m_Data: 
  m_MeshCompression: 0
  m_IsReadable: 1
  m_KeepVertices: 1
  m_KeepIndices: 1
  m_IndexFormat: 0
  m_IndexBuffer: 050002000100050001000000060000000300060003000400
  m_VertexData:
    serializedVersion: 3
    m_VertexCount: 7
    m_Channels:
    - stream: 0
      offset: 0
      format: 0
      dimension: 3
    - stream: 0
      offset: 12
      format: 0
      dimension: 3
    - stream: 0
      offset: 24
      format: 0
      dimension: 4
    - stream: 0
      offset: 0
      format: 0
      dimension: 0
    - stream: 0
      offset: 40
      format: 0
      dimension: 2
    - stream: 0
      offset: 0
      format: 0
      dimension: 0
    - stream: 0
      offset: 0
      format: 0
      dimension: 0
    - stream: 0
      offset: 0
      format: 0
      dimension: 0
    - stream: 0
      offset: 0
      format: 0
      dimension: 0
    - stream: 0
      offset: 0
      format: 0
      dimension: 0
    - stream: 0
      offset: 0
      format: 0
      dimension: 0
    - stream: 0
      offset: 0
      format: 0
      dimension: 0
    - stream: 0
      offset: 0
      format: 0
      dimension: 0
    - stream: 0
      offset: 0
      format: 0
      dimension: 0
    m_DataSize: 336
    _typelessdata: e93538bfce0cb83f539fde3e542873bf1caf9f3e8217bf3c40d344bdba7d60be2178793f0000803f52decd3ea063cc3e69b257bf0d54913f98df343f31276cbfd42ac53efdf5df3c0000803f0000000000000000000080bf50decd3ea063cc3e9eb45abf56e1933f149f06be31276cbfd32ac53efdf5df3c0000803f0000000000000000000080bf53decd3ea063cc3e69b257bf0d54913f98df343f31276c3fd92ac5be00f6dfbc0000803f0000000000000000000080bf50decd3ea063cc3e9eb45abf56e1933f149f06be31276c3fd72ac5befff5dfbc0000803f0000000000000000000080bf53decd3ea063cc3e920a36bf5bf8c13f9e5a57be31276cbfd32ac53efff5df3c0000803f0000000000000000000080bf51decd3ea063cc3e920a36bf5bf8c13f9e5a57be31276c3fd72ac5befff5dfbc0000803f0000000000000000000080bf51decd3ea063cc3e
  m_CompressedMesh:
    m_Vertices:
      m_NumItems: 0
      m_Range: 0
      m_Start: 0
      m_Data: 
      m_BitSize: 0
    m_UV:
      m_NumItems: 0
      m_Range: 0
      m_Start: 0
      m_Data: 
      m_BitSize: 0
    m_Normals:
      m_NumItems: 0
      m_Range: 0
      m_Start: 0
      m_Data: 
      m_BitSize: 0
    m_Tangents:
      m_NumItems: 0
      m_Range: 0
      m_Start: 0
      m_Data: 
      m_BitSize: 0
    m_Weights:
      m_NumItems: 0
      m_Data: 
      m_BitSize: 0
    m_NormalSigns:
      m_NumItems: 0
      m_Data: 
      m_BitSize: 0
    m_TangentSigns:
      m_NumItems: 0
      m_Data: 
      m_BitSize: 0
    m_FloatColors:
      m_NumItems: 0
      m_Range: 0
      m_Start: 0
      m_Data: 
      m_BitSize: 0
    m_BoneIndices:
      m_NumItems: 0
      m_Data: 
      m_BitSize: 0
    m_Triangles:
      m_NumItems: 0
      m_Data: 
      m_BitSize: 0
    m_UVInfo: 0
  m_LocalAABB:
    m_Center: {x: -0.78270864, y: 1.3253846, z: 0.24811508}
    m_Extent: {x: 0.071609855, y: 0.19000709, z: 0.4584217}
  m_MeshUsageFlags: 0
  m_CookingOptions: 30
  m_BakedConvexCollisionMesh: 
  m_BakedTriangleCollisionMesh: 
  'm_MeshMetrics[0]': 1
  'm_MeshMetrics[1]': 1
  m_MeshOptimizationFlags: 1
  m_StreamData:
    serializedVersion: 2
    offset: 0
    size: 0
    path: 
